<?xml version="1.0" encoding="utf-8"?>
<!-- Generator: Adobe Illustrator 24.0.1, SVG Export Plug-In . SVG Version: 6.00 Build 0)  -->
<svg version="1.1" xmlns="http://www.w3.org/2000/svg" xmlns:xlink="http://www.w3.org/1999/xlink" x="0px" y="0px"
     viewBox="0 0 595.3 841.9" xml:space="preserve">
<style type="text/css">
	.st0{display:none;fill:#484D9C;}
	.st1{display:none;fill:#EAE5F3;}
	.st2{display:none;fill:#05090A;}
	.st3{display:none;fill:#F5F4F5;}
	.st4{display:none;fill:#8E72B1;}
	.st5{fill:#F5F4F5;stroke:#05090A;stroke-width:2;stroke-miterlimit:10;}
	.st6{fill:url(#SVGID_1_);stroke:#06090A;stroke-width:2;stroke-miterlimit:10;}
	.st7{fill:#EAE5F3;stroke:#EAE5F3;stroke-width:9;stroke-linecap:round;stroke-miterlimit:10;}
	.st8{fill:#EAE5F3;stroke:#EAE5F3;stroke-width:1.697;stroke-miterlimit:10;}
	.st9{fill:#EAE5F3;stroke:#EAE5F3;stroke-width:1.1852;stroke-miterlimit:10;}
</style>
    <g id="Слой_1">
	
		<image style="display:none;overflow:visible;" width="580" height="386" xlink:href="7D8014E1.jpg"
               transform="matrix(0.7071 -0.7071 0.7071 0.7071 -37.3037 619.7132)">
	</image>
        <rect x="76.5" y="82.5" class="st0" width="50" height="42.6"/>
        <rect x="76.5" y="180.7" class="st1" width="50" height="42.6"/>
        <rect x="76.5" y="229.7" class="st2" width="50" height="42.6"/>
        <rect x="76.5" y="278.8" class="st3" width="50" height="42.6"/>
        <rect x="76.5" y="131.6" class="st4" width="50" height="42.6"/>
</g>
    <g id="Слой_2">
	<path class="st5" d="M352.2,418.4L352.2,418.4c-18.4-18.4-48.4-18.4-66.8,0l-48,48l67.4,67.4l47.3-47.3
		C371,467.7,371,437.2,352.2,418.4z"/>

        <linearGradient id="SVGID_1_" gradientUnits="userSpaceOnUse" x1="266.0017" y1="463.1512" x2="266.0017"
                        y2="348.0429" gradientTransform="matrix(0.7071 0.7071 -0.7071 0.7071 325.2064 69.7868)">
		<stop offset="0" style="stop-color:#484D9C"/>
            <stop offset="1" style="stop-color:#8E72B1"/>
	</linearGradient>
        <path class="st6" d="M186.1,585.7L186.1,585.7c18.4,18.4,48.4,18.4,66.8,0l48-48l-67.4-67.4l-47.3,47.3
		C167.3,536.4,167.3,566.9,186.1,585.7z"/>
        <line class="st7" x1="234.8" y1="489.7" x2="190.7" y2="533.8"/>
        <circle class="st8" cx="203.2" cy="583.6" r="3.6"/>
        <circle class="st9" cx="222.7" cy="576.6" r="9.8"/>
</g>
</svg>
